<svg width="144" height="28" viewBox="0 0 144 28" fill="none" xmlns="http://www.w3.org/2000/svg">
<path d="M16.2046 17.0654C16.2046 18.2607 15.9673 19.3198 15.4927 20.2427C15.0181 21.1567 14.3105 21.9346 13.3701 22.5762C12.5615 23.1299 11.6387 23.543 10.6016 23.8154C9.57324 24.0879 8.42627 24.2241 7.16064 24.2241C6.35205 24.2241 5.49951 24.1714 4.60303 24.0659C3.70654 23.9604 2.77051 23.7891 1.79492 23.5518L0.858887 1.1792C1.28076 1.13525 1.69385 1.1001 2.09814 1.07373C2.51123 1.04736 2.90674 1.03418 3.28467 1.03418C4.37451 1.03418 5.38525 1.13525 6.31689 1.3374C7.24854 1.53076 8.10107 1.82959 8.87451 2.23389C9.85889 2.74365 10.5928 3.37207 11.0762 4.11914C11.5684 4.86621 11.8145 5.73193 11.8145 6.71631C11.8145 7.14697 11.7617 7.58643 11.6562 8.03467C11.5508 8.47412 11.3882 8.91797 11.1685 9.36621C12.6714 10.0078 13.8843 11.0449 14.8071 12.4775C15.7388 13.9014 16.2046 15.4307 16.2046 17.0654ZM8.12305 9.93311L7.54297 3.16992C7.41992 3.04688 7.21338 2.92822 6.92334 2.81396C6.64209 2.69092 6.27734 2.57227 5.8291 2.45801L4.85352 11.9238C5.5918 11.6865 6.2334 11.4009 6.77832 11.0669C7.33203 10.7329 7.78027 10.355 8.12305 9.93311ZM11.564 14.9297C11.564 14.1387 11.4146 13.418 11.1157 12.7676C10.8257 12.1172 10.3862 11.5283 9.79736 11.001C9.09424 11.625 8.3208 12.1436 7.47705 12.5566C6.6333 12.9697 5.71484 13.2729 4.72168 13.4663L3.94385 21.8511C4.95459 21.8159 5.89502 21.6313 6.76514 21.2974C7.63525 20.9634 8.44385 20.4888 9.19092 19.8735C9.99072 19.2144 10.584 18.4717 10.9707 17.6455C11.3662 16.8193 11.564 15.9141 11.564 14.9297ZM14.5435 16.9072C14.5435 16.5996 14.4644 16.3667 14.3062 16.2085C14.1567 16.0503 13.9238 15.9712 13.6074 15.9712C13.291 15.9712 13.0537 16.0503 12.8955 16.2085C12.7373 16.3667 12.6582 16.5996 12.6582 16.9072C12.6582 17.2236 12.7373 17.4609 12.8955 17.6191C13.0537 17.7686 13.291 17.8433 13.6074 17.8433C13.9238 17.8433 14.1567 17.7686 14.3062 17.6191C14.4644 17.4609 14.5435 17.2236 14.5435 16.9072ZM13.5679 19.9922C13.5679 19.667 13.4492 19.3857 13.2119 19.1484C12.9834 18.9111 12.6978 18.7925 12.355 18.7925C12.0122 18.7925 11.7222 18.9111 11.4849 19.1484C11.2563 19.3857 11.1421 19.667 11.1421 19.9922C11.1421 20.335 11.2563 20.625 11.4849 20.8623C11.7222 21.0908 12.0122 21.2051 12.355 21.2051C12.6978 21.2051 12.9834 21.0908 13.2119 20.8623C13.4492 20.625 13.5679 20.335 13.5679 19.9922ZM10.6147 22.0093C10.6147 21.7017 10.5356 21.4688 10.3774 21.3105C10.2192 21.1523 9.98193 21.0732 9.66553 21.0732C9.35791 21.0732 9.125 21.1523 8.9668 21.3105C8.80859 21.4688 8.72949 21.7017 8.72949 22.0093C8.72949 22.3257 8.80859 22.563 8.9668 22.7212C9.125 22.8794 9.35791 22.9585 9.66553 22.9585C9.98193 22.9585 10.2192 22.8794 10.3774 22.7212C10.5356 22.563 10.6147 22.3257 10.6147 22.0093ZM9.66553 14.0068C8.86572 14.9561 8.14502 15.9448 7.50342 16.9731C6.86182 18.0015 6.29492 19.0693 5.80273 20.1768L5.0249 20.2031C5.4292 19.043 5.92139 17.896 6.50146 16.7622C7.09033 15.6196 7.76709 14.4902 8.53174 13.374L9.66553 14.0068ZM31.5239 22.6421L31.5107 23.354C30.1484 23.9692 28.7993 24.4263 27.4634 24.7251C26.1362 25.0327 24.8223 25.1865 23.5215 25.1865C22.8008 25.1865 22.1416 25.1162 21.5439 24.9756C20.9463 24.835 20.4102 24.6284 19.9355 24.356C19.373 24.0308 18.9468 23.6133 18.6567 23.1035C18.3755 22.5938 18.2349 22.0005 18.2349 21.3237C18.2349 20.1284 18.8325 19.0605 20.0278 18.1201C21.2319 17.1797 23.0249 16.3667 25.4067 15.6812C25.2134 15.1187 24.8838 14.6924 24.418 14.4023C23.9609 14.1123 23.3765 13.9673 22.6646 13.9673C21.8999 13.9673 21.2056 14.1255 20.5815 14.4419C19.9575 14.7495 19.4038 15.2065 18.9204 15.813L18.2217 15.1406C18.96 14.0068 19.874 13.1543 20.9639 12.583C22.0537 12.0029 23.3237 11.7129 24.7739 11.7129C25.9517 11.7129 26.9844 12.0425 27.8721 12.7017C28.7686 13.3521 29.5244 14.332 30.1396 15.6416C30.623 16.6699 30.979 17.7686 31.2075 18.9375C31.4448 20.0977 31.5503 21.3325 31.5239 22.6421ZM29.4805 18.0542C29.4805 17.7378 29.4014 17.5005 29.2432 17.3423C29.0938 17.1841 28.8608 17.105 28.5444 17.105C28.228 17.105 27.9863 17.1841 27.8193 17.3423C27.6611 17.5005 27.582 17.7378 27.582 18.0542C27.582 18.3706 27.6611 18.6079 27.8193 18.7661C27.9863 18.9155 28.228 18.9902 28.5444 18.9902C28.8608 18.9902 29.0938 18.9155 29.2432 18.7661C29.4014 18.6079 29.4805 18.3706 29.4805 18.0542ZM26.3428 21.6665C26.3428 20.8667 26.3032 20.0757 26.2241 19.2935C26.1538 18.5112 26.0396 17.7378 25.8813 16.9731C25.0552 17.2104 24.3081 17.4653 23.6401 17.7378C22.981 18.0015 22.4053 18.2827 21.9131 18.5815L23.2578 24.0264C23.9609 24.0264 24.5674 23.9868 25.0771 23.9077C25.5869 23.8286 25.9956 23.7012 26.3032 23.5254C26.3208 23.209 26.3296 22.897 26.3296 22.5894C26.3384 22.2817 26.3428 21.9741 26.3428 21.6665ZM30.021 21.6138C30.021 21.2798 29.9023 20.9941 29.665 20.7568C29.4365 20.5195 29.1509 20.4009 28.8081 20.4009C28.4741 20.4009 28.1841 20.5151 27.938 20.7437C27.7007 20.9722 27.582 21.2622 27.582 21.6138C27.582 21.9565 27.7007 22.2422 27.938 22.4707C28.1841 22.6992 28.4741 22.8135 28.8081 22.8135C29.1509 22.8135 29.4365 22.6992 29.665 22.4707C29.9023 22.2334 30.021 21.9478 30.021 21.6138ZM40.8843 1.42969L38.1948 24L34.0156 23.5913L34.2134 22.3916L35.835 22.6157L35.9009 20.2031L34.0552 20.0845L34.1475 18.9902L35.9009 19.0166L35.9404 16.7095L34.0156 16.6304L34.1475 15.6548H35.9668L36.0063 13.1235L33.9233 12.9917L34.0552 11.6733L36.0327 12.0293V9.86719L34.0552 9.64307L34.2134 8.56201L36.0723 8.52246L36.0986 6.2417L33.9497 6.13623L34.187 4.89697L36.0986 5.09473L36.1646 2.9458L33.8838 2.77441L34.0552 1.42969H40.8843ZM48.5571 8.78613L48.2275 9.59033L47.0806 8.99707C46.9575 9.15527 46.8213 9.28271 46.6719 9.37939C46.5225 9.47607 46.3555 9.54639 46.1709 9.59033L46.4346 10.6714L45.5381 10.8032L45.314 9.66943C45.1733 9.64307 45.0327 9.59473 44.8921 9.52441C44.7603 9.44531 44.6328 9.35742 44.5098 9.26074L43.6396 10.0649L43.0332 9.36621L44.0483 8.62793C43.9604 8.46094 43.9077 8.28516 43.8901 8.10059C43.8813 7.91602 43.8989 7.71826 43.9429 7.50732L42.7695 6.76904L43.2046 6.05713L44.2856 6.79541C44.3911 6.66357 44.5098 6.55371 44.6416 6.46582C44.7822 6.36914 44.9404 6.29443 45.1162 6.2417L44.8921 4.68604H45.7358L45.7886 6.13623C45.9819 6.1626 46.1577 6.20654 46.3159 6.26807C46.4741 6.32959 46.6235 6.40869 46.7642 6.50537L47.687 5.76709L48.2935 6.37354L47.2388 7.08545C47.3091 7.18213 47.3574 7.33154 47.3838 7.53369C47.4102 7.73584 47.4189 7.99072 47.4102 8.29834L48.5571 8.78613ZM48.1089 25.5161L42.5586 24.8042L44.6152 11.9634H47.0806L48.1089 25.5161ZM46.54 18.7134C46.54 18.4058 46.4609 18.1729 46.3027 18.0146C46.1533 17.8564 45.9204 17.7773 45.604 17.7773C45.2788 17.7773 45.0371 17.8564 44.8789 18.0146C44.7207 18.1729 44.6416 18.4058 44.6416 18.7134C44.6416 19.0298 44.7207 19.2671 44.8789 19.4253C45.0371 19.5835 45.2788 19.6626 45.604 19.6626C45.9204 19.6626 46.1533 19.5835 46.3027 19.4253C46.4609 19.2671 46.54 19.0298 46.54 18.7134ZM46.54 22.2861C46.54 21.9521 46.4214 21.6665 46.1841 21.4292C45.9468 21.1919 45.6567 21.0732 45.314 21.0732C44.9888 21.0732 44.7075 21.1919 44.4702 21.4292C44.2329 21.6665 44.1143 21.9521 44.1143 22.2861C44.1143 22.6201 44.2329 22.9058 44.4702 23.1431C44.7075 23.3716 44.9888 23.4858 45.314 23.4858C45.6567 23.4858 45.9468 23.3716 46.1841 23.1431C46.4214 22.9058 46.54 22.6201 46.54 22.2861ZM64.061 22.6421L64.0479 23.354C62.6855 23.9692 61.3364 24.4263 60.0005 24.7251C58.6733 25.0327 57.3594 25.1865 56.0586 25.1865C55.3379 25.1865 54.6787 25.1162 54.0811 24.9756C53.4834 24.835 52.9473 24.6284 52.4727 24.356C51.9102 24.0308 51.4839 23.6133 51.1938 23.1035C50.9126 22.5938 50.772 22.0005 50.772 21.3237C50.772 20.1284 51.3696 19.0605 52.5649 18.1201C53.769 17.1797 55.562 16.3667 57.9438 15.6812C57.7505 15.1187 57.4209 14.6924 56.9551 14.4023C56.498 14.1123 55.9136 13.9673 55.2017 13.9673C54.437 13.9673 53.7427 14.1255 53.1187 14.4419C52.4946 14.7495 51.9409 15.2065 51.4575 15.813L50.7588 15.1406C51.4971 14.0068 52.4111 13.1543 53.501 12.583C54.5908 12.0029 55.8608 11.7129 57.311 11.7129C58.4888 11.7129 59.5215 12.0425 60.4092 12.7017C61.3057 13.3521 62.0615 14.332 62.6768 15.6416C63.1602 16.6699 63.5161 17.7686 63.7446 18.9375C63.9819 20.0977 64.0874 21.3325 64.061 22.6421ZM62.0176 18.0542C62.0176 17.7378 61.9385 17.5005 61.7803 17.3423C61.6309 17.1841 61.3979 17.105 61.0815 17.105C60.7651 17.105 60.5234 17.1841 60.3564 17.3423C60.1982 17.5005 60.1191 17.7378 60.1191 18.0542C60.1191 18.3706 60.1982 18.6079 60.3564 18.7661C60.5234 18.9155 60.7651 18.9902 61.0815 18.9902C61.3979 18.9902 61.6309 18.9155 61.7803 18.7661C61.9385 18.6079 62.0176 18.3706 62.0176 18.0542ZM58.8799 21.6665C58.8799 20.8667 58.8403 20.0757 58.7612 19.2935C58.6909 18.5112 58.5767 17.7378 58.4185 16.9731C57.5923 17.2104 56.8452 17.4653 56.1772 17.7378C55.5181 18.0015 54.9424 18.2827 54.4502 18.5815L55.7949 24.0264C56.498 24.0264 57.1045 23.9868 57.6143 23.9077C58.124 23.8286 58.5327 23.7012 58.8403 23.5254C58.8579 23.209 58.8667 22.897 58.8667 22.5894C58.8755 22.2817 58.8799 21.9741 58.8799 21.6665ZM62.5581 21.6138C62.5581 21.2798 62.4395 20.9941 62.2021 20.7568C61.9736 20.5195 61.688 20.4009 61.3452 20.4009C61.0112 20.4009 60.7212 20.5151 60.4751 20.7437C60.2378 20.9722 60.1191 21.2622 60.1191 21.6138C60.1191 21.9565 60.2378 22.2422 60.4751 22.4707C60.7212 22.6992 61.0112 22.8135 61.3452 22.8135C61.688 22.8135 61.9736 22.6992 62.2021 22.4707C62.4395 22.2334 62.5581 21.9478 62.5581 21.6138ZM79.0376 13.7959L77.7588 14.2705C77.7588 14.3408 77.7632 14.4463 77.772 14.5869C77.7808 14.7275 77.7852 14.8374 77.7852 14.9165C77.7852 15.145 77.7588 15.3604 77.7061 15.5625C77.6621 15.7559 77.5918 15.936 77.4951 16.103L78.6289 16.9072L77.917 17.606L76.915 16.8018C76.7744 16.9336 76.6118 17.0566 76.4272 17.1709C76.2515 17.2852 76.0537 17.3994 75.834 17.5137L75.1616 16.5908C75.3022 16.415 75.4033 16.2393 75.4648 16.0635C75.5352 15.8877 75.5703 15.7119 75.5703 15.5361C75.5703 15.1758 75.4473 14.9033 75.2012 14.7188C74.9551 14.5342 74.5859 14.4419 74.0938 14.4419C73.5488 14.4419 72.9688 14.7363 72.3535 15.3252C71.7383 15.9053 71.0879 16.7754 70.4023 17.9355L70.6001 25.1865L66.0781 24.5142L68.1348 12.0952L70.2178 11.6733L70.3232 15.5625C70.6045 15.167 70.877 14.8154 71.1406 14.5078C71.4043 14.2002 71.6592 13.9321 71.9053 13.7036L71.3384 12.4248L72.2349 11.9634L72.7095 13.0576C73.0171 12.873 73.3291 12.7192 73.6455 12.5962C73.9707 12.4644 74.3003 12.3721 74.6343 12.3193L74.6738 11.001L75.6362 11.0933L75.4385 12.293C75.9307 12.3193 76.3481 12.4336 76.6909 12.6357C77.0425 12.8291 77.3105 13.106 77.4951 13.4663L78.6948 12.8335L79.0376 13.7959ZM69.5718 19.188C69.5718 18.9155 69.5015 18.709 69.3608 18.5684C69.2202 18.4189 69.0005 18.3442 68.7017 18.3442C68.4292 18.3442 68.2227 18.4189 68.082 18.5684C67.9414 18.709 67.8711 18.9155 67.8711 19.188C67.8711 19.4692 67.9414 19.6802 68.082 19.8208C68.2227 19.9526 68.4292 20.0186 68.7017 20.0186C69.0005 20.0186 69.2202 19.9526 69.3608 19.8208C69.5015 19.6802 69.5718 19.4692 69.5718 19.188ZM69.5059 22.418C69.5059 22.1104 69.4004 21.8511 69.1895 21.6401C68.9873 21.4204 68.7368 21.3105 68.438 21.3105C68.1479 21.3105 67.8931 21.4204 67.6733 21.6401C67.4624 21.8511 67.3569 22.1104 67.3569 22.418C67.3569 22.7783 67.4448 23.0464 67.6206 23.2222C67.8052 23.3979 68.0776 23.4858 68.438 23.4858C68.8071 23.4858 69.0752 23.3979 69.2422 23.2222C69.418 23.0464 69.5059 22.7783 69.5059 22.418ZM94.3306 22.998C94.1108 23.2178 93.9131 23.4155 93.7373 23.5913C93.5615 23.7583 93.4077 23.8945 93.2759 24L94.2646 25.4766L93.3418 26.0171L92.3398 24.7778C91.9883 24.9888 91.6147 25.1646 91.2192 25.3052C90.8237 25.4546 90.4019 25.5557 89.9536 25.6084L89.9272 27.1641L88.7407 27.085L88.8462 25.6479C88.4419 25.6479 88.0112 25.604 87.5542 25.5161C87.0972 25.437 86.6182 25.314 86.1172 25.147L85.3789 26.729L84.1924 26.083L84.9966 24.6064C84.5659 24.3691 84.1704 24.0967 83.8101 23.7891C83.4585 23.4727 83.1465 23.1167 82.874 22.7212L81.4634 23.6177L80.8701 22.6816L82.4126 21.8774C82.2104 21.4556 82.0522 21.0249 81.938 20.5854C81.8237 20.1372 81.749 19.6802 81.7139 19.2144L80.3032 19.5703L79.8945 18.4102L81.7139 18.0015C81.7578 17.5093 81.8325 17.0654 81.938 16.6699C82.0435 16.2744 82.1797 15.9229 82.3467 15.6152L81.0679 14.8506L81.6743 13.8486L82.9268 14.7188C83.1465 14.4463 83.3838 14.2002 83.6387 13.9805C83.9023 13.7607 84.1792 13.5674 84.4692 13.4004L83.3882 11.8315L84.5747 11.2515L85.4448 12.9258C85.7261 12.8379 85.981 12.7676 86.2095 12.7148C86.438 12.6621 86.6401 12.6226 86.8159 12.5962L87.1719 10.8691L88.1079 11.1592L87.8706 12.5303C88.2222 12.5303 88.5562 12.5742 88.8726 12.6621C89.189 12.75 89.4922 12.8818 89.7822 13.0576L91.0874 11.7656L91.8257 12.3853L90.5864 13.73C90.7798 13.9146 90.96 14.1387 91.127 14.4023C91.2939 14.6572 91.4434 14.9429 91.5752 15.2593L93.1177 14.7451L93.3813 15.7207L91.8916 16.2349C91.9619 16.4282 92.019 16.6392 92.063 16.8677C92.1157 17.0962 92.1641 17.3423 92.208 17.606L86.0776 18.6738V18.8188C86.0776 19.4604 86.1436 20.0669 86.2754 20.6382C86.416 21.2007 86.627 21.7368 86.9082 22.2466C87.2422 22.853 87.6421 23.3101 88.1079 23.6177C88.5737 23.9165 89.0967 24.0659 89.6768 24.0659C90.2744 24.0659 90.9028 23.9077 91.562 23.5913C92.2212 23.2749 92.9199 22.7915 93.6582 22.1411L94.3306 22.998ZM88.9385 16.5249C88.9033 16.1382 88.7583 15.8481 88.5034 15.6548C88.2573 15.4614 87.9014 15.3647 87.4355 15.3647C86.8643 15.3647 86.3325 15.5361 85.8403 15.8789C85.3481 16.2217 85.0142 16.6611 84.8384 17.1973L88.9385 16.5249ZM110.467 23.4858L105.392 24.3823C105.462 21.6929 105.51 19.8604 105.537 18.8848C105.563 17.9004 105.576 17.2852 105.576 17.0391C105.576 16.2217 105.444 15.6108 105.181 15.2065C104.917 14.7935 104.517 14.5869 103.981 14.5869C103.48 14.5869 102.953 14.8154 102.399 15.2725C101.854 15.7207 101.283 16.3975 100.685 17.3027L100.303 24.1318L97.9165 24.4482L96.5059 12.3589L101.015 11.4097L100.817 15.2065C101.467 14.3364 102.157 13.6816 102.887 13.2422C103.616 12.7939 104.381 12.5698 105.181 12.5698C106.235 12.5698 107.097 12.9653 107.765 13.7563C108.441 14.5474 108.938 15.7383 109.254 17.3291L110.467 23.4858ZM108.292 18.3179C108.292 18.0454 108.222 17.8389 108.081 17.6982C107.94 17.5488 107.729 17.4741 107.448 17.4741C107.167 17.4741 106.952 17.5488 106.802 17.6982C106.662 17.8389 106.591 18.0454 106.591 18.3179C106.591 18.6079 106.662 18.8276 106.802 18.9771C106.952 19.1177 107.167 19.188 107.448 19.188C107.729 19.188 107.94 19.1177 108.081 18.9771C108.222 18.8276 108.292 18.6079 108.292 18.3179ZM108.78 21.5347C108.78 21.2358 108.67 20.9854 108.45 20.7832C108.23 20.5723 107.976 20.4668 107.686 20.4668C107.316 20.4668 107.04 20.5591 106.855 20.7437C106.679 20.9194 106.591 21.1831 106.591 21.5347C106.591 21.895 106.679 22.1675 106.855 22.3521C107.04 22.5278 107.316 22.6157 107.686 22.6157C107.976 22.6157 108.23 22.5146 108.45 22.3125C108.67 22.1016 108.78 21.8423 108.78 21.5347ZM121.304 3.48633C121.304 3.80273 121.225 4.04004 121.067 4.19824C120.917 4.34766 120.685 4.42236 120.368 4.42236C120.052 4.42236 119.814 4.34766 119.656 4.19824C119.498 4.04004 119.419 3.80273 119.419 3.48633C119.419 3.16113 119.498 2.91943 119.656 2.76123C119.814 2.60303 120.052 2.52393 120.368 2.52393C120.685 2.52393 120.917 2.60303 121.067 2.76123C121.225 2.91943 121.304 3.16113 121.304 3.48633ZM121.542 6.53174C121.542 6.85693 121.462 7.09424 121.304 7.24365C121.155 7.39307 120.922 7.46777 120.605 7.46777C120.298 7.46777 120.065 7.39307 119.907 7.24365C119.749 7.09424 119.669 6.85693 119.669 6.53174C119.669 6.23291 119.749 6.00439 119.907 5.84619C120.065 5.6792 120.298 5.5957 120.605 5.5957C120.922 5.5957 121.155 5.6792 121.304 5.84619C121.462 6.00439 121.542 6.23291 121.542 6.53174ZM121.911 9.80127C121.911 10.1265 121.832 10.3638 121.673 10.5132C121.524 10.6626 121.291 10.7373 120.975 10.7373C120.658 10.7373 120.421 10.6626 120.263 10.5132C120.104 10.3638 120.025 10.1265 120.025 9.80127C120.025 9.48486 120.104 9.24756 120.263 9.08936C120.421 8.93115 120.658 8.85205 120.975 8.85205C121.291 8.85205 121.524 8.93115 121.673 9.08936C121.832 9.24756 121.911 9.48486 121.911 9.80127ZM127.566 0.585938L125.681 24.7778L123.321 24.5801L123.189 21.271C122.583 22.1235 121.88 22.7651 121.08 23.1958C120.289 23.6265 119.401 23.8418 118.417 23.8418C116.817 23.8418 115.459 23.2661 114.343 22.1147C113.227 20.9634 112.669 19.5835 112.669 17.9751C112.669 17.105 112.827 16.314 113.144 15.6021C113.469 14.8813 113.952 14.2397 114.594 13.6772C115.2 13.1411 115.877 12.7412 116.624 12.4775C117.371 12.2051 118.18 12.0688 119.05 12.0688C119.876 12.0688 120.592 12.1787 121.199 12.3984C121.814 12.6182 122.333 12.9434 122.754 13.374L122.214 1.78564L127.566 0.585938ZM122.952 17.7773C122.952 16.3096 122.587 15.2197 121.858 14.5078C121.128 13.7959 120.03 13.4399 118.562 13.4399H118.312L118.008 15.1406L116.268 14.811L116.136 15.7866L117.811 16.1953L117.639 17.3818L115.952 16.9731L115.78 17.9092L117.428 18.3838L117.23 19.4121L115.622 18.9902L115.358 20.0845L117.033 20.4668L116.769 22.1411C117.077 22.2729 117.384 22.374 117.692 22.4443C118 22.5059 118.303 22.5366 118.602 22.5366C119.226 22.5366 119.797 22.418 120.315 22.1807C120.834 21.9346 121.309 21.5654 121.739 21.0732C122.144 20.6074 122.447 20.1021 122.649 19.5571C122.851 19.0034 122.952 18.4102 122.952 17.7773ZM143.057 22.6421L143.044 23.354C141.682 23.9692 140.333 24.4263 138.997 24.7251C137.669 25.0327 136.355 25.1865 135.055 25.1865C134.334 25.1865 133.675 25.1162 133.077 24.9756C132.479 24.835 131.943 24.6284 131.469 24.356C130.906 24.0308 130.48 23.6133 130.19 23.1035C129.909 22.5938 129.768 22.0005 129.768 21.3237C129.768 20.1284 130.366 19.0605 131.561 18.1201C132.765 17.1797 134.558 16.3667 136.94 15.6812C136.747 15.1187 136.417 14.6924 135.951 14.4023C135.494 14.1123 134.91 13.9673 134.198 13.9673C133.433 13.9673 132.739 14.1255 132.115 14.4419C131.491 14.7495 130.937 15.2065 130.454 15.813L129.755 15.1406C130.493 14.0068 131.407 13.1543 132.497 12.583C133.587 12.0029 134.857 11.7129 136.307 11.7129C137.485 11.7129 138.518 12.0425 139.405 12.7017C140.302 13.3521 141.058 14.332 141.673 15.6416C142.156 16.6699 142.512 17.7686 142.741 18.9375C142.978 20.0977 143.083 21.3325 143.057 22.6421ZM141.014 18.0542C141.014 17.7378 140.935 17.5005 140.776 17.3423C140.627 17.1841 140.394 17.105 140.078 17.105C139.761 17.105 139.52 17.1841 139.353 17.3423C139.194 17.5005 139.115 17.7378 139.115 18.0542C139.115 18.3706 139.194 18.6079 139.353 18.7661C139.52 18.9155 139.761 18.9902 140.078 18.9902C140.394 18.9902 140.627 18.9155 140.776 18.7661C140.935 18.6079 141.014 18.3706 141.014 18.0542ZM137.876 21.6665C137.876 20.8667 137.836 20.0757 137.757 19.2935C137.687 18.5112 137.573 17.7378 137.415 16.9731C136.588 17.2104 135.841 17.4653 135.173 17.7378C134.514 18.0015 133.938 18.2827 133.446 18.5815L134.791 24.0264C135.494 24.0264 136.101 23.9868 136.61 23.9077C137.12 23.8286 137.529 23.7012 137.836 23.5254C137.854 23.209 137.863 22.897 137.863 22.5894C137.872 22.2817 137.876 21.9741 137.876 21.6665ZM141.554 21.6138C141.554 21.2798 141.436 20.9941 141.198 20.7568C140.97 20.5195 140.684 20.4009 140.341 20.4009C140.007 20.4009 139.717 20.5151 139.471 20.7437C139.234 20.9722 139.115 21.2622 139.115 21.6138C139.115 21.9565 139.234 22.2422 139.471 22.4707C139.717 22.6992 140.007 22.8135 140.341 22.8135C140.684 22.8135 140.97 22.6992 141.198 22.4707C141.436 22.2334 141.554 21.9478 141.554 21.6138Z" fill="#6896C6"/>
</svg>
