<svg width="26" height="25" viewBox="0 0 26 25" fill="none" xmlns="http://www.w3.org/2000/svg">
<rect x="0.75" y="0.75" width="24.5" height="23.5" fill="white" stroke="#45536F" stroke-width="1.5"/>
<rect x="22" y="4" width="4" height="17" fill="white"/>
<rect y="4" width="4" height="17" fill="white"/>
<rect x="4" width="18" height="3" fill="white"/>
<rect x="4" y="22" width="18" height="3" fill="white"/>
<mask id="mask0_1117_796" style="mask-type:alpha" maskUnits="userSpaceOnUse" x="4" y="4" width="18" height="17">
<path d="M7.27273 20.3636C7.04091 20.3636 6.84659 20.2765 6.68977 20.1023C6.53295 19.928 6.45455 19.7121 6.45455 19.4545V18.5455C5.77273 18.5455 5.19318 18.2803 4.71591 17.75C4.23864 17.2197 4 16.5758 4 15.8182V11.2727C4 10.5152 4.23864 9.87121 4.71591 9.34091C5.19318 8.81061 5.77273 8.54545 6.45455 8.54545V6.72727C6.45455 5.9697 6.69318 5.32576 7.17045 4.79545C7.64773 4.26515 8.22727 4 8.90909 4H17.0909C17.7727 4 18.3523 4.26515 18.8295 4.79545C19.3068 5.32576 19.5455 5.9697 19.5455 6.72727V8.54545C20.2273 8.54545 20.8068 8.81061 21.2841 9.34091C21.7614 9.87121 22 10.5152 22 11.2727V15.8182C22 16.5758 21.7614 17.2197 21.2841 17.75C20.8068 18.2803 20.2273 18.5455 19.5455 18.5455V19.4545C19.5455 19.7121 19.467 19.928 19.3102 20.1023C19.1534 20.2765 18.9591 20.3636 18.7273 20.3636C18.4955 20.3636 18.3011 20.2765 18.1443 20.1023C17.9875 19.928 17.9091 19.7121 17.9091 19.4545V18.5455H8.09091V19.4545C8.09091 19.7121 8.0125 19.928 7.85568 20.1023C7.69886 20.2765 7.50455 20.3636 7.27273 20.3636ZM6.45455 16.7273H19.5455C19.7773 16.7273 19.9716 16.6402 20.1284 16.4659C20.2852 16.2917 20.3636 16.0758 20.3636 15.8182V11.2727C20.3636 11.0152 20.2852 10.7992 20.1284 10.625C19.9716 10.4508 19.7773 10.3636 19.5455 10.3636C19.3136 10.3636 19.1193 10.4508 18.9625 10.625C18.8057 10.7992 18.7273 11.0152 18.7273 11.2727V14.9091H7.27273V11.2727C7.27273 11.0152 7.19432 10.7992 7.0375 10.625C6.88068 10.4508 6.68636 10.3636 6.45455 10.3636C6.22273 10.3636 6.02841 10.4508 5.87159 10.625C5.71477 10.7992 5.63636 11.0152 5.63636 11.2727V15.8182C5.63636 16.0758 5.71477 16.2917 5.87159 16.4659C6.02841 16.6402 6.22273 16.7273 6.45455 16.7273ZM8.90909 13.0909H17.0909V11.2727C17.0909 10.8636 17.1659 10.4924 17.3159 10.1591C17.4659 9.82576 17.6636 9.5303 17.9091 9.27273V6.72727C17.9091 6.4697 17.8307 6.25379 17.6739 6.07955C17.517 5.9053 17.3227 5.81818 17.0909 5.81818H8.90909C8.67727 5.81818 8.48295 5.9053 8.32614 6.07955C8.16932 6.25379 8.09091 6.4697 8.09091 6.72727V9.27273C8.33636 9.5303 8.53409 9.82576 8.68409 10.1591C8.83409 10.4924 8.90909 10.8636 8.90909 11.2727V13.0909Z" fill="black"/>
</mask>
<g mask="url(#mask0_1117_796)">
<path d="M7.27273 20.3636C7.04091 20.3636 6.84659 20.2765 6.68977 20.1023C6.53295 19.928 6.45455 19.7121 6.45455 19.4545V18.5455C5.77273 18.5455 5.19318 18.2803 4.71591 17.75C4.23864 17.2197 4 16.5758 4 15.8182V11.2727C4 10.5152 4.23864 9.87121 4.71591 9.34091C5.19318 8.81061 5.77273 8.54545 6.45455 8.54545V6.72727C6.45455 5.9697 6.69318 5.32576 7.17045 4.79545C7.64773 4.26515 8.22727 4 8.90909 4H17.0909C17.7727 4 18.3523 4.26515 18.8295 4.79545C19.3068 5.32576 19.5455 5.9697 19.5455 6.72727V8.54545C20.2273 8.54545 20.8068 8.81061 21.2841 9.34091C21.7614 9.87121 22 10.5152 22 11.2727V15.8182C22 16.5758 21.7614 17.2197 21.2841 17.75C20.8068 18.2803 20.2273 18.5455 19.5455 18.5455V19.4545C19.5455 19.7121 19.467 19.928 19.3102 20.1023C19.1534 20.2765 18.9591 20.3636 18.7273 20.3636C18.4955 20.3636 18.3011 20.2765 18.1443 20.1023C17.9875 19.928 17.9091 19.7121 17.9091 19.4545V18.5455H8.09091V19.4545C8.09091 19.7121 8.0125 19.928 7.85568 20.1023C7.69886 20.2765 7.50455 20.3636 7.27273 20.3636ZM6.45455 16.7273H19.5455C19.7773 16.7273 19.9716 16.6402 20.1284 16.4659C20.2852 16.2917 20.3636 16.0758 20.3636 15.8182V11.2727C20.3636 11.0152 20.2852 10.7992 20.1284 10.625C19.9716 10.4508 19.7773 10.3636 19.5455 10.3636C19.3136 10.3636 19.1193 10.4508 18.9625 10.625C18.8057 10.7992 18.7273 11.0152 18.7273 11.2727V14.9091H7.27273V11.2727C7.27273 11.0152 7.19432 10.7992 7.0375 10.625C6.88068 10.4508 6.68636 10.3636 6.45455 10.3636C6.22273 10.3636 6.02841 10.4508 5.87159 10.625C5.71477 10.7992 5.63636 11.0152 5.63636 11.2727V15.8182C5.63636 16.0758 5.71477 16.2917 5.87159 16.4659C6.02841 16.6402 6.22273 16.7273 6.45455 16.7273ZM8.90909 13.0909H17.0909V11.2727C17.0909 10.8636 17.1659 10.4924 17.3159 10.1591C17.4659 9.82576 17.6636 9.5303 17.9091 9.27273V6.72727C17.9091 6.4697 17.8307 6.25379 17.6739 6.07955C17.517 5.9053 17.3227 5.81818 17.0909 5.81818H8.90909C8.67727 5.81818 8.48295 5.9053 8.32614 6.07955C8.16932 6.25379 8.09091 6.4697 8.09091 6.72727V9.27273C8.33636 9.5303 8.53409 9.82576 8.68409 10.1591C8.83409 10.4924 8.90909 10.8636 8.90909 11.2727V13.0909Z" fill="#45536F"/>
</g>
</svg>
